<mxfile host="Electron" modified="2024-05-25T16:38:07.863Z" agent="Mozilla/5.0 (Windows NT 10.0; Win64; x64) AppleWebKit/537.36 (KHTML, like Gecko) draw.io/24.4.8 Chrome/124.0.6367.207 Electron/30.0.6 Safari/537.36" etag="crH_gzYd-TB3WEeaLd3D" version="24.4.8" type="device">
  <diagram name="Страница — 1" id="PcEWtlPgPCDtj0ls3Ts2">
    <mxGraphModel dx="1422" dy="991" grid="1" gridSize="10" guides="1" tooltips="1" connect="1" arrows="1" fold="1" page="1" pageScale="1" pageWidth="3300" pageHeight="2339" math="0" shadow="0">
      <root>
        <mxCell id="0" />
        <mxCell id="1" parent="0" />
        <mxCell id="mll8DuVHwv-NQTPGJLWj-10" style="edgeStyle=orthogonalEdgeStyle;rounded=0;orthogonalLoop=1;jettySize=auto;html=1;exitX=0.5;exitY=1;exitDx=0;exitDy=0;exitPerimeter=0;entryX=0.5;entryY=0;entryDx=0;entryDy=0;" edge="1" parent="1" source="mll8DuVHwv-NQTPGJLWj-1" target="mll8DuVHwv-NQTPGJLWj-2">
          <mxGeometry relative="1" as="geometry" />
        </mxCell>
        <mxCell id="mll8DuVHwv-NQTPGJLWj-1" value="Начало" style="strokeWidth=2;html=1;shape=mxgraph.flowchart.terminator;whiteSpace=wrap;" vertex="1" parent="1">
          <mxGeometry x="280" y="250" width="100" height="50" as="geometry" />
        </mxCell>
        <mxCell id="mll8DuVHwv-NQTPGJLWj-11" style="edgeStyle=orthogonalEdgeStyle;rounded=0;orthogonalLoop=1;jettySize=auto;html=1;exitX=0.5;exitY=1;exitDx=0;exitDy=0;entryX=0.5;entryY=0;entryDx=0;entryDy=0;" edge="1" parent="1" source="mll8DuVHwv-NQTPGJLWj-2" target="mll8DuVHwv-NQTPGJLWj-9">
          <mxGeometry relative="1" as="geometry" />
        </mxCell>
        <mxCell id="mll8DuVHwv-NQTPGJLWj-2" value="&lt;p style=&quot;line-height: 100%;&quot;&gt;&lt;font style=&quot;font-size: 10px;&quot;&gt;&lt;span style=&quot;color: rgb(13, 13, 13); font-family: ui-sans-serif, -apple-system, system-ui, &amp;quot;Segoe UI&amp;quot;, Roboto, Ubuntu, Cantarell, &amp;quot;Noto Sans&amp;quot;, sans-serif, Helvetica, &amp;quot;Apple Color Emoji&amp;quot;, Arial, &amp;quot;Segoe UI Emoji&amp;quot;, &amp;quot;Segoe UI Symbol&amp;quot;; text-align: left; white-space-collapse: preserve; background-color: rgb(255, 255, 255);&quot;&gt;Отправить HTTP-запрос &lt;/span&gt;&lt;span style=&quot;color: rgb(13, 13, 13); font-family: ui-sans-serif, -apple-system, system-ui, &amp;quot;Segoe UI&amp;quot;, Roboto, Ubuntu, Cantarell, &amp;quot;Noto Sans&amp;quot;, sans-serif, Helvetica, &amp;quot;Apple Color Emoji&amp;quot;, Arial, &amp;quot;Segoe UI Emoji&amp;quot;, &amp;quot;Segoe UI Symbol&amp;quot;; text-align: left; white-space-collapse: preserve; background-color: rgb(255, 255, 255);&quot;&gt;чтобы получить содержимое файла&lt;/span&gt;&lt;/font&gt;&lt;/p&gt;" style="rounded=1;whiteSpace=wrap;html=1;absoluteArcSize=1;arcSize=0;strokeWidth=2;" vertex="1" parent="1">
          <mxGeometry x="280" y="330" width="100" height="60" as="geometry" />
        </mxCell>
        <mxCell id="mll8DuVHwv-NQTPGJLWj-13" style="edgeStyle=orthogonalEdgeStyle;rounded=0;orthogonalLoop=1;jettySize=auto;html=1;exitX=0.5;exitY=1;exitDx=0;exitDy=0;entryX=0.5;entryY=0;entryDx=0;entryDy=0;" edge="1" parent="1" source="mll8DuVHwv-NQTPGJLWj-4" target="mll8DuVHwv-NQTPGJLWj-6">
          <mxGeometry relative="1" as="geometry" />
        </mxCell>
        <mxCell id="mll8DuVHwv-NQTPGJLWj-4" value="Преобразовать символ в число, отнимая 97" style="rounded=1;whiteSpace=wrap;html=1;absoluteArcSize=1;arcSize=0;strokeWidth=2;" vertex="1" parent="1">
          <mxGeometry x="280" y="510" width="100" height="60" as="geometry" />
        </mxCell>
        <mxCell id="mll8DuVHwv-NQTPGJLWj-14" style="edgeStyle=orthogonalEdgeStyle;rounded=0;orthogonalLoop=1;jettySize=auto;html=1;exitX=0.5;exitY=1;exitDx=0;exitDy=0;entryX=0.5;entryY=0;entryDx=0;entryDy=0;" edge="1" parent="1" source="mll8DuVHwv-NQTPGJLWj-6" target="mll8DuVHwv-NQTPGJLWj-7">
          <mxGeometry relative="1" as="geometry" />
        </mxCell>
        <mxCell id="mll8DuVHwv-NQTPGJLWj-6" value="Вычесть 7*индекс из этого значения" style="rounded=1;whiteSpace=wrap;html=1;absoluteArcSize=1;arcSize=0;strokeWidth=2;" vertex="1" parent="1">
          <mxGeometry x="280" y="600" width="100" height="60" as="geometry" />
        </mxCell>
        <mxCell id="mll8DuVHwv-NQTPGJLWj-15" style="edgeStyle=orthogonalEdgeStyle;rounded=0;orthogonalLoop=1;jettySize=auto;html=1;exitX=0.5;exitY=1;exitDx=0;exitDy=0;entryX=0.5;entryY=0;entryDx=0;entryDy=0;" edge="1" parent="1" source="mll8DuVHwv-NQTPGJLWj-7" target="mll8DuVHwv-NQTPGJLWj-8">
          <mxGeometry relative="1" as="geometry" />
        </mxCell>
        <mxCell id="mll8DuVHwv-NQTPGJLWj-7" value="Получите остаток от деления на 26" style="rounded=1;whiteSpace=wrap;html=1;absoluteArcSize=1;arcSize=0;strokeWidth=2;" vertex="1" parent="1">
          <mxGeometry x="280" y="690" width="100" height="60" as="geometry" />
        </mxCell>
        <mxCell id="mll8DuVHwv-NQTPGJLWj-8" value="Объедините две пары чисел в один байт" style="rounded=1;whiteSpace=wrap;html=1;absoluteArcSize=1;arcSize=0;strokeWidth=2;" vertex="1" parent="1">
          <mxGeometry x="280" y="780" width="100" height="60" as="geometry" />
        </mxCell>
        <mxCell id="mll8DuVHwv-NQTPGJLWj-12" style="edgeStyle=orthogonalEdgeStyle;rounded=0;orthogonalLoop=1;jettySize=auto;html=1;exitX=0.5;exitY=1;exitDx=0;exitDy=0;entryX=0.5;entryY=0;entryDx=0;entryDy=0;" edge="1" parent="1" source="mll8DuVHwv-NQTPGJLWj-9" target="mll8DuVHwv-NQTPGJLWj-4">
          <mxGeometry relative="1" as="geometry" />
        </mxCell>
        <mxCell id="mll8DuVHwv-NQTPGJLWj-9" value="&lt;p style=&quot;line-height: 100%;&quot;&gt;&lt;span style=&quot;color: rgb(13, 13, 13); font-family: ui-sans-serif, -apple-system, system-ui, &amp;quot;Segoe UI&amp;quot;, Roboto, Ubuntu, Cantarell, &amp;quot;Noto Sans&amp;quot;, sans-serif, Helvetica, &amp;quot;Apple Color Emoji&amp;quot;, Arial, &amp;quot;Segoe UI Emoji&amp;quot;, &amp;quot;Segoe UI Symbol&amp;quot;; text-align: left; white-space-collapse: preserve;&quot;&gt;&lt;font style=&quot;font-size: 12px;&quot;&gt;Полученный текст считать в одну строку.&lt;/font&gt;&lt;/span&gt;&lt;/p&gt;" style="rounded=1;whiteSpace=wrap;html=1;absoluteArcSize=1;arcSize=0;strokeWidth=2;" vertex="1" parent="1">
          <mxGeometry x="280" y="420" width="100" height="60" as="geometry" />
        </mxCell>
        <mxCell id="mll8DuVHwv-NQTPGJLWj-16" value="А" style="strokeWidth=2;html=1;shape=mxgraph.flowchart.start_2;whiteSpace=wrap;" vertex="1" parent="1">
          <mxGeometry x="305" y="870" width="50" height="50" as="geometry" />
        </mxCell>
        <mxCell id="mll8DuVHwv-NQTPGJLWj-17" style="edgeStyle=orthogonalEdgeStyle;rounded=0;orthogonalLoop=1;jettySize=auto;html=1;exitX=0.5;exitY=1;exitDx=0;exitDy=0;entryX=0.5;entryY=0;entryDx=0;entryDy=0;entryPerimeter=0;" edge="1" parent="1" source="mll8DuVHwv-NQTPGJLWj-8" target="mll8DuVHwv-NQTPGJLWj-16">
          <mxGeometry relative="1" as="geometry" />
        </mxCell>
        <mxCell id="mll8DuVHwv-NQTPGJLWj-18" value="А" style="strokeWidth=2;html=1;shape=mxgraph.flowchart.start_2;whiteSpace=wrap;" vertex="1" parent="1">
          <mxGeometry x="494" y="250" width="50" height="50" as="geometry" />
        </mxCell>
        <mxCell id="mll8DuVHwv-NQTPGJLWj-33" style="edgeStyle=orthogonalEdgeStyle;rounded=0;orthogonalLoop=1;jettySize=auto;html=1;exitX=0.5;exitY=1;exitDx=0;exitDy=0;exitPerimeter=0;entryX=0.5;entryY=0;entryDx=0;entryDy=0;" edge="1" parent="1" source="mll8DuVHwv-NQTPGJLWj-20" target="mll8DuVHwv-NQTPGJLWj-21">
          <mxGeometry relative="1" as="geometry" />
        </mxCell>
        <mxCell id="mll8DuVHwv-NQTPGJLWj-20" value="Пока все полученные знаяения не закончаться" style="strokeWidth=2;html=1;shape=mxgraph.flowchart.loop_limit;whiteSpace=wrap;" vertex="1" parent="1">
          <mxGeometry x="469" y="330" width="100" height="60" as="geometry" />
        </mxCell>
        <mxCell id="mll8DuVHwv-NQTPGJLWj-34" style="edgeStyle=orthogonalEdgeStyle;rounded=0;orthogonalLoop=1;jettySize=auto;html=1;exitX=0.5;exitY=1;exitDx=0;exitDy=0;entryX=0.5;entryY=0;entryDx=0;entryDy=0;" edge="1" parent="1" source="mll8DuVHwv-NQTPGJLWj-21" target="mll8DuVHwv-NQTPGJLWj-22">
          <mxGeometry relative="1" as="geometry" />
        </mxCell>
        <mxCell id="mll8DuVHwv-NQTPGJLWj-21" value="&lt;p style=&quot;line-height: 100%;&quot;&gt;&lt;font face=&quot;ui-sans-serif, -apple-system, system-ui, Segoe UI, Roboto, Ubuntu, Cantarell, Noto Sans, sans-serif, Helvetica, Apple Color Emoji, Arial, Segoe UI Emoji, Segoe UI Symbol&quot; color=&quot;#0d0d0d&quot;&gt;&lt;span style=&quot;white-space-collapse: preserve;&quot;&gt;Преобразовать первые 4 байта в  ip адрес&lt;/span&gt;&lt;/font&gt;&lt;br&gt;&lt;/p&gt;" style="rounded=1;whiteSpace=wrap;html=1;absoluteArcSize=1;arcSize=0;strokeWidth=2;" vertex="1" parent="1">
          <mxGeometry x="469" y="420" width="100" height="60" as="geometry" />
        </mxCell>
        <mxCell id="mll8DuVHwv-NQTPGJLWj-35" style="edgeStyle=orthogonalEdgeStyle;rounded=0;orthogonalLoop=1;jettySize=auto;html=1;exitX=0.5;exitY=1;exitDx=0;exitDy=0;entryX=0.5;entryY=0;entryDx=0;entryDy=0;" edge="1" parent="1" source="mll8DuVHwv-NQTPGJLWj-22" target="mll8DuVHwv-NQTPGJLWj-23">
          <mxGeometry relative="1" as="geometry" />
        </mxCell>
        <mxCell id="mll8DuVHwv-NQTPGJLWj-22" value="&lt;p style=&quot;line-height: 100%;&quot;&gt;&lt;font face=&quot;ui-sans-serif, -apple-system, system-ui, Segoe UI, Roboto, Ubuntu, Cantarell, Noto Sans, sans-serif, Helvetica, Apple Color Emoji, Arial, Segoe UI Emoji, Segoe UI Symbol&quot; color=&quot;#0d0d0d&quot;&gt;&lt;span style=&quot;white-space-collapse: preserve;&quot;&gt;Следующие 3 байта объединяются в значение ac&lt;/span&gt;&lt;/font&gt;&lt;br&gt;&lt;/p&gt;" style="rounded=1;whiteSpace=wrap;html=1;absoluteArcSize=1;arcSize=0;strokeWidth=2;" vertex="1" parent="1">
          <mxGeometry x="469" y="510" width="100" height="60" as="geometry" />
        </mxCell>
        <mxCell id="mll8DuVHwv-NQTPGJLWj-23" value="Преобразовать следующий байт в значение clu" style="rounded=1;whiteSpace=wrap;html=1;absoluteArcSize=1;arcSize=0;strokeWidth=2;" vertex="1" parent="1">
          <mxGeometry x="469" y="600" width="100" height="60" as="geometry" />
        </mxCell>
        <mxCell id="mll8DuVHwv-NQTPGJLWj-37" style="edgeStyle=orthogonalEdgeStyle;rounded=0;orthogonalLoop=1;jettySize=auto;html=1;exitX=0.5;exitY=0;exitDx=0;exitDy=0;exitPerimeter=0;entryX=0.5;entryY=0;entryDx=0;entryDy=0;" edge="1" parent="1" source="mll8DuVHwv-NQTPGJLWj-30" target="mll8DuVHwv-NQTPGJLWj-31">
          <mxGeometry relative="1" as="geometry" />
        </mxCell>
        <mxCell id="mll8DuVHwv-NQTPGJLWj-30" value="Перейти на следующие 11 байт" style="strokeWidth=2;html=1;shape=mxgraph.flowchart.loop_limit;whiteSpace=wrap;flipH=1;flipV=1;" vertex="1" parent="1">
          <mxGeometry x="469" y="690" width="100" height="60" as="geometry" />
        </mxCell>
        <mxCell id="mll8DuVHwv-NQTPGJLWj-31" value="Вернуть массив URL-адресов серверов серверов" style="rounded=1;whiteSpace=wrap;html=1;absoluteArcSize=1;arcSize=0;strokeWidth=2;" vertex="1" parent="1">
          <mxGeometry x="469" y="780" width="100" height="60" as="geometry" />
        </mxCell>
        <mxCell id="mll8DuVHwv-NQTPGJLWj-32" style="edgeStyle=orthogonalEdgeStyle;rounded=0;orthogonalLoop=1;jettySize=auto;html=1;exitX=0.5;exitY=1;exitDx=0;exitDy=0;exitPerimeter=0;entryX=0.5;entryY=0;entryDx=0;entryDy=0;entryPerimeter=0;" edge="1" parent="1" source="mll8DuVHwv-NQTPGJLWj-18" target="mll8DuVHwv-NQTPGJLWj-20">
          <mxGeometry relative="1" as="geometry" />
        </mxCell>
        <mxCell id="mll8DuVHwv-NQTPGJLWj-36" style="edgeStyle=orthogonalEdgeStyle;rounded=0;orthogonalLoop=1;jettySize=auto;html=1;exitX=0.5;exitY=1;exitDx=0;exitDy=0;entryX=0.5;entryY=1;entryDx=0;entryDy=0;entryPerimeter=0;" edge="1" parent="1" source="mll8DuVHwv-NQTPGJLWj-23" target="mll8DuVHwv-NQTPGJLWj-30">
          <mxGeometry relative="1" as="geometry" />
        </mxCell>
        <mxCell id="mll8DuVHwv-NQTPGJLWj-38" value="Конец" style="strokeWidth=2;html=1;shape=mxgraph.flowchart.terminator;whiteSpace=wrap;" vertex="1" parent="1">
          <mxGeometry x="469" y="870" width="100" height="50" as="geometry" />
        </mxCell>
        <mxCell id="mll8DuVHwv-NQTPGJLWj-39" style="edgeStyle=orthogonalEdgeStyle;rounded=0;orthogonalLoop=1;jettySize=auto;html=1;exitX=0.5;exitY=1;exitDx=0;exitDy=0;entryX=0.5;entryY=0;entryDx=0;entryDy=0;entryPerimeter=0;" edge="1" parent="1" source="mll8DuVHwv-NQTPGJLWj-31" target="mll8DuVHwv-NQTPGJLWj-38">
          <mxGeometry relative="1" as="geometry" />
        </mxCell>
      </root>
    </mxGraphModel>
  </diagram>
</mxfile>
